<?xml version="1.0" standalone="no"?>
<!DOCTYPE svg PUBLIC "-//W3C//DTD SVG 20010904//EN"
 "http://www.w3.org/TR/2001/REC-SVG-20010904/DTD/svg10.dtd">
<svg version="1.0" xmlns="http://www.w3.org/2000/svg"
 width="276.000000pt" height="276.000000pt" viewBox="0 0 276.000000 276.000000"
 preserveAspectRatio="xMidYMid meet">
<metadata>
Created by potrace 1.11, written by Peter Selinger 2001-2013
</metadata>
<g transform="translate(0.000000,276.000000) scale(0.100000,-0.100000)"
fill="#000000" stroke="none">
<path d="M1338 2741 c-47 -4 -100 -14 -117 -21 -21 -8 -35 -9 -44 -3 -24 20
-57 22 -66 5 -11 -19 -101 -43 -176 -47 -58 -4 -85 -13 -85 -29 0 -6 -16 -20
-35 -30 -19 -10 -34 -21 -33 -25 1 -14 -15 -51 -23 -51 -5 0 -6 -7 -3 -15 5
-11 -1 -15 -22 -15 -16 -1 -39 -9 -51 -19 -26 -22 -31 -61 -8 -61 12 0 15 -13
15 -55 l0 -55 -35 0 c-18 0 -38 -6 -42 -13 -4 -7 -20 -20 -34 -29 -24 -15 -26
-20 -19 -59 5 -24 15 -48 24 -55 19 -13 23 -104 5 -104 -7 0 -8 -7 -4 -17 4
-10 8 -29 9 -43 1 -18 9 -26 26 -28 14 -2 30 -8 36 -13 6 -4 36 -11 67 -15 32
-4 60 -11 63 -16 3 -5 -5 -17 -18 -28 -15 -13 -19 -22 -12 -27 17 -13 23 -40
11 -52 -9 -9 -6 -13 11 -18 31 -8 42 -40 42 -119 l0 -64 -29 0 c-37 0 -61 -9
-61 -22 0 -6 -8 -16 -17 -23 -22 -16 -23 -62 -2 -81 12 -11 15 -23 10 -42 -8
-32 -7 -85 2 -127 8 -35 17 -120 21 -185 2 -25 8 -55 13 -65 6 -11 14 -38 18
-60 4 -22 22 -72 41 -111 19 -39 34 -80 34 -91 0 -10 5 -24 12 -31 7 -7 9 -12
5 -12 -4 0 -3 -8 2 -18 6 -11 11 -38 13 -61 2 -46 33 -81 69 -81 11 0 20 -6
20 -12 1 -7 3 -30 4 -51 1 -20 7 -49 13 -65 6 -15 11 -34 11 -42 1 -8 4 -31 7
-50 5 -36 12 -111 17 -210 2 -30 9 -65 15 -76 6 -12 9 -24 6 -26 -6 -6 25 -18
140 -54 90 -27 90 -27 298 -20 142 5 219 11 241 21 18 7 47 19 65 26 19 7 52
29 75 51 39 36 44 38 88 32 43 -6 47 -4 68 25 19 26 23 44 22 102 0 39 -5 77
-11 84 -8 10 -8 30 -1 71 6 32 11 102 11 155 0 85 3 101 20 117 18 16 18 20 5
46 -18 34 -19 63 -3 68 7 3 15 33 19 74 14 143 22 189 36 205 12 14 11 23 -3
64 -12 37 -14 67 -10 124 13 144 12 206 -1 233 -7 15 -13 36 -13 48 0 11 -5
20 -11 20 -5 0 -8 4 -5 8 3 5 -6 16 -18 26 -21 15 -23 22 -15 54 5 20 9 78 9
127 0 80 11 138 32 171 11 16 -32 96 -48 90 -7 -3 -16 -1 -19 4 -6 10 12 15
88 25 52 7 84 38 74 75 -3 10 1 24 9 31 16 13 19 39 4 39 -5 0 -10 12 -10 28
0 15 -9 38 -20 52 -17 22 -25 25 -81 23 -34 -1 -66 -6 -72 -12 -15 -15 -64
-14 -73 1 -4 7 -6 35 -5 62 2 43 8 56 37 84 19 18 34 41 34 52 0 10 4 21 10
25 12 7 -9 56 -32 73 -9 7 -23 18 -30 25 -7 7 -20 16 -28 20 -26 13 -57 32
-73 45 -41 34 -329 58 -509 43z m217 -106 c66 -8 143 -19 170 -25 28 -6 60
-13 73 -16 12 -2 22 -11 22 -19 0 -8 6 -15 14 -15 8 0 17 -4 20 -9 3 -5 0 -8
-7 -8 -6 0 -27 -5 -44 -12 -24 -9 -33 -19 -33 -36 0 -26 -40 -45 -94 -45 -18
0 -36 -4 -41 -8 -16 -14 -96 -34 -103 -26 -4 4 -1 9 6 11 15 6 16 53 1 53 -5
0 -7 4 -4 10 3 5 -1 20 -9 33 -15 21 -20 22 -93 16 -43 -3 -95 -4 -115 -1 -28
3 -52 -3 -93 -22 -54 -27 -55 -28 -55 -70 l0 -43 -102 3 c-87 2 -111 6 -155
28 -51 25 -52 26 -42 56 6 16 15 30 19 30 5 0 15 6 22 13 19 17 58 34 98 42
19 4 52 11 73 15 20 4 40 3 43 -1 9 -15 44 -10 44 6 0 8 9 15 20 15 11 0 39 4
62 10 151 35 145 35 303 15z m-231 -240 c3 -8 1 -15 -4 -15 -6 0 -10 7 -10 15
0 8 2 15 4 15 2 0 6 -7 10 -15z m479 -87 c5 -37 13 -57 28 -69 l21 -16 -28
-11 c-16 -6 -49 -14 -74 -17 -25 -4 -68 -13 -95 -20 -28 -8 -66 -15 -84 -17
-18 -1 -35 -6 -37 -10 -3 -5 -29 -5 -57 -2 -29 3 -90 1 -137 -4 -54 -7 -89 -7
-96 -1 -7 5 -41 11 -75 13 -65 4 -110 14 -119 26 -8 10 -123 40 -153 40 -28 0
-51 30 -29 38 17 5 15 22 -3 22 -8 0 -15 8 -15 18 0 28 11 34 31 16 13 -12 50
-19 133 -24 63 -5 120 -11 125 -15 14 -8 215 -10 228 -2 6 4 41 9 79 11 65 5
129 15 219 35 22 5 55 12 73 16 17 4 32 11 32 16 0 5 6 9 14 9 9 0 15 -18 19
-52z m-968 -198 c52 -10 156 -41 165 -50 19 -19 95 -31 220 -36 80 -3 156 -8
169 -10 l24 -5 -27 -15 c-30 -15 -109 -14 -311 6 -174 17 -191 20 -211 35 -11
8 -31 15 -45 15 -15 0 -32 7 -39 15 -7 8 -19 15 -27 15 -14 0 -34 39 -26 52 2
4 16 3 31 -3 15 -6 50 -14 77 -19z m902 -54 c3 -6 3 -8 -2 -4 -4 4 -20 1 -36
-7 -34 -18 -62 -19 -56 -2 2 6 12 11 21 11 9 -1 16 2 16 6 0 12 50 9 57 -4z
m197 -90 c-3 -13 -1 -27 6 -31 7 -4 11 -32 10 -68 -1 -34 -1 -66 0 -72 5 -29
-3 -118 -14 -160 -10 -42 -16 -49 -41 -52 -15 -2 -44 -11 -63 -19 -19 -8 -58
-14 -88 -14 -29 0 -56 -5 -59 -10 -7 -12 -233 -9 -252 3 -6 4 -14 3 -18 -3 -3
-5 -19 -10 -35 -10 -16 0 -32 5 -35 10 -4 6 -11 7 -18 3 -20 -12 -220 -11
-259 2 -21 7 -58 10 -82 8 l-44 -5 -7 54 c-4 30 -6 63 -4 74 1 10 -1 26 -4 34
-3 8 -7 52 -10 98 -4 82 -3 83 22 89 14 3 55 1 91 -5 169 -29 279 -36 344 -23
35 7 79 12 97 10 19 -1 41 1 49 4 32 13 127 36 174 42 27 4 58 12 69 18 15 9
21 9 24 1 6 -17 42 -5 53 17 9 16 30 23 83 28 14 1 16 -4 11 -23z m-121 -545
c14 -5 49 -6 80 -2 76 10 93 -5 90 -79 -3 -73 -11 -205 -13 -205 -9 0 -8 -100
1 -111 9 -11 9 -18 1 -26 -7 -7 -12 -29 -12 -50 0 -32 -8 -47 -46 -88 -26 -28
-52 -50 -59 -50 -7 0 -32 -11 -57 -24 -105 -56 -212 -72 -463 -69 -169 2 -295
17 -295 35 0 5 -5 6 -12 2 -7 -4 -8 -3 -4 5 4 6 0 14 -9 17 -17 7 -65 93 -65
117 0 8 -7 20 -15 27 -8 7 -15 23 -15 36 0 12 -4 26 -10 29 -5 3 -10 15 -10
26 0 10 -3 19 -8 19 -11 0 -44 188 -42 235 2 22 0 47 -3 55 -3 8 -8 30 -11 48
-4 32 -4 33 13 18 22 -20 99 -12 118 11 13 17 105 21 192 8 31 -4 51 -3 48 2
-3 5 56 7 136 6 114 -2 318 6 429 15 9 1 28 -2 41 -7z m107 -749 c0 -4 -5 -13
-10 -18 -8 -8 -7 -14 3 -22 11 -9 13 -41 11 -149 -2 -76 -6 -153 -10 -171 -5
-32 -7 -34 -39 -28 -28 6 -36 2 -54 -20 -12 -15 -21 -33 -21 -40 0 -8 -9 -14
-20 -14 -10 0 -23 -6 -27 -13 -27 -46 -119 -63 -333 -62 l-145 0 -70 35 -70
36 -7 59 c-3 33 -10 102 -14 153 -4 51 -11 95 -16 98 -4 3 -8 18 -8 33 0 24 6
30 38 39 26 8 50 8 81 1 55 -12 377 -5 480 12 56 8 87 19 124 45 45 31 107 46
107 26z"/>
</g>
</svg>
