<?xml version="1.0" standalone="no"?>
<!DOCTYPE svg PUBLIC "-//W3C//DTD SVG 20010904//EN"
 "http://www.w3.org/TR/2001/REC-SVG-20010904/DTD/svg10.dtd">
<svg version="1.0" xmlns="http://www.w3.org/2000/svg"
 width="249.000000pt" height="249.000000pt" viewBox="0 0 249.000000 249.000000"
 preserveAspectRatio="xMidYMid meet">
<metadata>
Created by potrace 1.11, written by Peter Selinger 2001-2013
</metadata>
<g transform="translate(0.000000,249.000000) scale(0.100000,-0.100000)"
fill="#000000" stroke="none">
<path d="M546 2446 c-9 -19 -16 -39 -16 -44 0 -6 28 -24 62 -41 58 -29 100
-67 135 -119 10 -15 19 -19 27 -13 12 10 29 -4 34 -29 4 -18 33 -39 54 -40 11
0 15 -6 11 -20 -4 -15 0 -20 16 -20 11 0 21 -4 21 -9 0 -14 77 -91 90 -91 7 0
10 -7 6 -16 -4 -10 8 -28 34 -52 23 -20 43 -49 45 -64 4 -23 -1 -30 -35 -49
-22 -13 -40 -26 -40 -31 0 -4 -6 -8 -13 -8 -8 0 -19 -10 -26 -23 -7 -12 -20
-23 -29 -24 -27 -3 -113 -22 -123 -28 -16 -11 -10 -78 13 -132 12 -29 25 -50
30 -47 4 3 5 -2 2 -10 -3 -9 5 -25 20 -39 14 -13 26 -30 26 -37 0 -6 9 -23 20
-37 11 -14 27 -48 35 -76 19 -64 41 -97 64 -97 23 0 39 19 36 43 -2 9 3 17 10
17 17 0 28 31 19 56 -6 16 -26 44 -64 91 -6 7 -10 19 -10 27 0 8 -5 18 -11 22
-16 9 -60 114 -54 125 4 5 15 9 26 9 18 0 32 12 62 53 11 16 28 23 60 26 4 1
12 12 18 25 6 13 29 33 50 45 26 15 39 30 40 44 1 29 6 57 14 83 5 16 -1 27
-27 48 -54 44 -98 86 -98 94 0 10 -137 142 -148 142 -5 0 -36 26 -70 58 -75
71 -89 82 -102 82 -5 0 -10 6 -10 14 0 39 -111 126 -161 126 -21 0 -30 -8 -43
-34z m322 -901 c-3 -3 -9 2 -12 12 -6 14 -5 15 5 6 7 -7 10 -15 7 -18z"/>
<path d="M1182 2197 c-21 -59 -11 -83 39 -90 13 -2 24 -8 24 -13 0 -21 44 -67
66 -70 13 -1 27 -3 32 -3 4 -1 7 -6 7 -12 0 -8 -6 -7 -17 2 -14 10 -13 8 2
-10 35 -42 55 -61 65 -61 6 0 10 -8 11 -17 0 -10 2 -32 3 -50 3 -24 -1 -32
-16 -36 -11 -3 -22 -15 -25 -26 -3 -12 -10 -21 -15 -21 -5 0 -6 -4 -3 -10 4
-6 -1 -7 -10 -3 -21 7 -39 -18 -22 -29 7 -4 -4 -8 -24 -8 -20 0 -39 -3 -43 -7
-8 -8 -13 -9 -41 -12 -8 0 -15 -8 -15 -16 0 -9 -7 -18 -15 -21 -12 -5 -13 -10
-4 -20 9 -11 9 -14 0 -14 -7 0 -11 -10 -9 -22 2 -19 10 -24 46 -26 26 -2 55 3
75 13 18 9 50 19 71 21 22 2 47 11 55 18 9 8 30 20 46 26 26 10 28 13 13 21
-18 10 -25 59 -9 59 18 0 51 67 56 114 5 43 3 49 -22 69 -15 12 -31 21 -35 20
-4 -2 -10 6 -13 17 -4 11 -11 20 -16 20 -5 0 -8 4 -6 9 4 16 -73 101 -87 95
-8 -3 -16 4 -19 16 -3 12 -15 24 -26 27 -11 3 -31 23 -45 44 -33 48 -58 50
-74 6z m282 -273 c3 -8 2 -12 -4 -9 -6 3 -10 10 -10 16 0 14 7 11 14 -7z m6
-75 c0 -5 5 -7 12 -3 7 4 8 3 4 -4 -4 -6 -13 -9 -21 -5 -17 6 -20 23 -5 23 6
0 10 -5 10 -11z m-26 -17 c3 -5 -1 -9 -9 -9 -8 0 -12 4 -9 9 3 4 7 8 9 8 2 0
6 -4 9 -8z m-64 -76 c0 -2 -9 -6 -20 -9 -11 -3 -18 -1 -14 4 5 9 34 13 34 5z"/>
<path d="M1565 1082 c-5 -5 -193 -12 -440 -17 -215 -4 -233 -5 -345 -26 -36
-6 -76 -13 -90 -14 -14 -1 -41 -5 -60 -9 -32 -6 -107 -15 -152 -19 -10 -1 -18
-4 -18 -8 0 -3 -18 -3 -40 1 -22 4 -60 4 -85 -1 -25 -5 -51 -6 -57 -4 -28 10
-78 -61 -58 -81 8 -8 37 -125 46 -187 2 -16 13 -41 24 -56 10 -16 17 -30 15
-33 -6 -5 22 -90 42 -127 7 -15 13 -31 13 -38 0 -53 193 -305 220 -288 6 4 10
-2 10 -12 1 -32 47 -55 193 -98 32 -9 61 -14 64 -11 3 3 13 1 23 -4 9 -5 39
-12 66 -15 27 -4 65 -10 84 -15 59 -15 175 -2 223 26 23 13 50 24 60 24 9 0
17 4 17 8 0 4 19 20 43 35 23 15 63 48 88 74 25 27 59 60 75 74 60 54 112 124
133 179 21 58 34 80 44 80 5 0 4 -6 -2 -13 -6 -8 -8 -16 -5 -20 3 -3 7 -18 9
-33 1 -16 7 -30 12 -31 6 -2 25 -18 44 -35 60 -54 127 -72 271 -70 86 0 127
21 148 73 7 16 23 40 37 55 15 17 23 34 20 46 -3 11 2 36 10 56 30 70 21 278
-14 346 -47 91 -192 152 -249 105 -19 -15 -29 -5 -47 46 l-14 40 -177 0 c-98
0 -179 -1 -181 -3z m95 -125 c62 -2 58 5 44 -97 -4 -30 -18 -75 -31 -99 -12
-24 -23 -50 -23 -58 0 -7 -11 -35 -25 -61 -13 -26 -26 -58 -29 -72 -7 -36 -24
-87 -25 -75 -1 5 -13 -8 -28 -30 -14 -22 -54 -69 -87 -105 -34 -36 -72 -82
-86 -103 -16 -24 -40 -43 -67 -53 -24 -9 -43 -20 -43 -24 0 -16 -117 -54 -165
-52 -42 1 -139 12 -179 22 -26 6 -56 8 -65 5 -9 -3 -33 4 -54 15 -20 11 -45
20 -56 20 -10 0 -30 9 -43 20 -14 10 -28 17 -31 14 -2 -3 -17 7 -33 21 -16 15
-34 23 -43 20 -8 -3 -12 -3 -9 1 13 12 -22 64 -47 70 -14 4 -22 11 -18 19 2 8
-4 24 -16 36 -11 12 -27 37 -36 55 -8 19 -22 50 -31 69 -9 19 -20 35 -24 35
-4 0 -5 11 -3 24 3 13 -3 39 -13 57 -18 35 -23 50 -27 82 -1 10 -6 21 -12 25
-10 7 -11 17 -17 111 l-3 45 50 0 c28 1 56 5 63 9 6 5 12 4 12 -1 0 -10 59
-10 76 0 5 3 33 9 63 12 29 4 58 9 63 12 5 3 54 8 109 10 55 2 104 6 109 9 4
3 124 7 266 10 142 3 259 7 261 9 3 2 48 2 101 -1 53 -3 122 -6 152 -6z m230
-5 c0 -8 -62 -52 -73 -52 -4 0 -6 11 -5 25 2 19 10 28 33 34 30 8 45 6 45 -7z
m248 -108 c2 -16 5 -36 9 -44 9 -24 10 -81 1 -86 -4 -3 -4 -15 1 -27 11 -31 4
-103 -13 -138 -8 -16 -17 -42 -21 -58 -6 -30 -33 -60 -57 -65 -7 -2 -21 -6
-30 -10 -26 -11 -118 0 -156 19 -18 10 -37 28 -42 40 -5 13 -19 36 -32 50 -19
22 -29 26 -58 21 -31 -5 -36 -3 -36 14 0 11 4 20 9 20 4 0 7 6 6 13 -1 6 1 19
4 27 11 27 30 75 32 80 9 35 22 53 53 71 20 12 54 40 75 61 27 27 46 38 67 38
16 0 32 4 35 10 13 22 69 27 110 10 32 -13 41 -23 43 -46z m-1268 -734 c0 -5
-5 -10 -11 -10 -5 0 -7 5 -4 10 3 6 8 10 11 10 2 0 4 -4 4 -10z"/>
</g>
</svg>
